<!-- Generated by IcoMoon.io -->
<svg version="1.1" xmlns="http://www.w3.org/2000/svg" id="close" viewBox="0 0 32 32">
<path d="M5.651 3.984c-0.678 0-1.289 0.411-1.544 1.040s-0.104 1.349 0.383 1.822l9.154 9.154-9.161 9.159c-0.422 0.421-0.586 1.036-0.432 1.612s0.604 1.026 1.18 1.18c0.576 0.154 1.19-0.010 1.612-0.432l9.159-9.161 9.154 9.154c0.418 0.435 1.039 0.611 1.623 0.459s1.040-0.608 1.192-1.192c0.152-0.584-0.023-1.205-0.459-1.623l-9.154-9.154 9.143-9.143c0.435-0.418 0.611-1.039 0.459-1.623s-0.608-1.040-1.192-1.192c-0.584-0.152-1.205 0.023-1.623 0.458l-9.143 9.143-9.154-9.154c-0.314-0.323-0.745-0.505-1.195-0.505z"></path>
</svg>
